<?xml version="1.0" encoding="UTF-8"?>
<svg id="Layer_1" data-name="Layer 1" xmlns="http://www.w3.org/2000/svg" viewBox="0 0 597.41 597.41">
  <defs>
    <style>
      .cls-1 {
        fill: #fff;
      }

      .cls-2 {
        fill: #231f20;
      }
    </style>
  </defs>
  <circle class="cls-1" cx="298.7" cy="298.7" r="298.7"/>
  <polygon class="cls-2" points="175.2 102.2 281.82 102.2 465.53 420.08 399.2 420.08 389.13 402.73 435.47 402.75 272.01 119.68 205.27 119.64 422.15 495.19 315.75 495.19 131.88 177.32 198.39 177.32 208.44 194.74 161.81 194.74 325.44 477.86 392.18 477.86 175.2 102.2"/>
  <polygon class="cls-2" points="213.66 353.56 223.69 370.9 161.97 477.86 228.7 477.86 257.11 428.58 267.18 445.92 238.73 495.21 131.88 495.21 213.66 353.56"/>
  <polygon class="cls-2" points="383.75 243.85 373.72 226.51 435.44 119.55 368.71 119.55 340.3 168.84 330.23 151.49 358.68 102.2 465.53 102.2 383.75 243.85"/>
</svg>