<?xml version="1.0" encoding="UTF-8"?>
<svg id="Layer_1" data-name="Layer 1" xmlns="http://www.w3.org/2000/svg" viewBox="0 0 597.41 703.71">
  <defs>
    <style>
      .cls-1 {
        fill: #231f20;
      }
    </style>
  </defs>
  <polygon class="cls-1" points="77.56 0 268.47 0 597.41 569.19 478.65 569.19 460.62 538.12 543.6 538.15 250.91 31.3 131.41 31.22 519.74 703.68 329.22 703.68 0 134.51 119.08 134.51 137.08 165.69 53.58 165.69 346.57 672.64 466.08 672.64 77.56 0"/>
  <polygon class="cls-1" points="146.43 450.07 164.38 481.12 53.88 672.65 173.35 672.65 224.22 584.4 242.26 615.46 191.31 703.71 0 703.71 146.43 450.07"/>
  <polygon class="cls-1" points="450.99 253.64 433.03 222.59 543.54 31.06 424.06 31.06 373.19 119.32 355.16 88.26 406.1 0 597.41 0 450.99 253.64"/>
</svg>